# xmcd
#
# Track frame offsets: 
#        150
#        15551
#        29181
#        43052
#        60820
#        76824
#        93892
#        110134
#        128298
#        145349
#        160252
#        174915
#        187279
#        199262
#        212339
#        227596
#        243884
#        258740
#        274197
#        288122
#
# Disc length: 4044 seconds
#
# Revision: 0
# Processed by: cddbd v1.5.2PL0 Copyright (c) Steve Scherf et al.
# Submitted via: ExactAudioCopy v0.99pb4
#
DISCID=120fca14
DTITLE=Various Artist - Schlager Festival 2011
DYEAR=2011
DGENRE=Pop-Folk
TTITLE0=Laura Lynn, Luc Steeno, Lindsay, De Romeo's, Sam Gooris, The S
TTITLE0=unsets - Als Je Dan Even In Je Handen Klapt
TTITLE1=Jan Smit - Niemand Zo Trots Als Wij
TTITLE2=Christoff and Willeke Alberti - Niemand Laat Zijn Eigen Kind All
TTITLE2=een
TTITLE3=Frans Bauer - Als Sterren Aan De Hemel Staan
TTITLE4=Lindsay - Een Bosje Bloemen Voor Je Moeder
TTITLE5=Dana Winner - Westenwind
TTITLE6=Bobby Prins - Toe Kom In M'n Armen
TTITLE7=Roland Kaiser - Santa Maria
TTITLE8=Helene Fischer - Und Morgen Früh Küss' Ich Dich Wach
TTITLE9=Die Flippers - Ay Ay Herr Kapitän
TTITLE10=Costa Cordalis - Steig In Das Boot Heute Nacht Anna Lena
TTITLE11=André Hazes - Zeg Maar Niets Meer
TTITLE12=Nick and Simon - Rosanne
TTITLE13=Frans Duijts - Samen Op Het Strand
TTITLE14=Danny Fabry - Ca C'Est La Vie
TTITLE15=Tom Waes - Dos Cervezas
TTITLE16=The Sunsets - Mexico - Eviva Espana
TTITLE17=Eddy Wally - Valencia
TTITLE18=Willy Sommers - Een Wonder Van Een Vrouw
TTITLE19=Laura Lynn and De Romeo's - Naar De Kermis
EXTD=
EXTT0=
EXTT1=
EXTT2=
EXTT3=
EXTT4=
EXTT5=
EXTT6=
EXTT7=
EXTT8=
EXTT9=
EXTT10=
EXTT11=
EXTT12=
EXTT13=
EXTT14=
EXTT15=
EXTT16=
EXTT17=
EXTT18=
EXTT19=
PLAYORDER=
